<?xml version="1.0" ?><svg id="Icons" style="enable-background:new 0 0 32 32;" version="1.1" viewBox="0 0 32 32" xml:space="preserve" xmlns="http://www.w3.org/2000/svg" xmlns:xlink="http://www.w3.org/1999/xlink"><style type="text/css">
	.st0{fill:none;stroke:#000000;stroke-width:2;stroke-linecap:round;stroke-linejoin:round;stroke-miterlimit:10;}
</style><path class="st0" d="M29,7l-2.5,18.3c-0.1,1-1,1.7-2,1.7H7.5c-1,0-1.8-0.7-2-1.7L3,7"/><path class="st0" d="M27.7,16.3c-0.9-0.7-2.3-0.6-3.1,0.2l0,0c-0.9,0.9-2.5,0.9-3.4,0l0,0c-0.9-0.9-2.5-0.9-3.4,0l0,0  c-0.9,0.9-2.5,0.9-3.4,0l0,0c-0.9-0.9-2.5-0.9-3.4,0l0,0c-0.9,0.9-2.5,0.9-3.4,0l0,0c-0.9-0.8-2.2-0.9-3.1-0.2"/></svg>