<?xml version="1.0" ?><svg id="Layer_1" style="enable-background:new 0 0 64 64;" version="1.1" viewBox="0 0 64 64" xml:space="preserve" xmlns="http://www.w3.org/2000/svg" xmlns:xlink="http://www.w3.org/1999/xlink"><g><path d="M7.1,58.1c1.1,1.8,3.1,2.9,5.2,2.9h39.4c2.1,0,4.1-1.1,5.2-2.9s1.2-4.1,0.3-6l-14-27.9l10.5-10.5l-1.4-1.4l-10,10l-4.8-9.5   c-1-2.1-3.2-3.4-5.5-3.4s-4.4,1.3-5.5,3.4l-4.8,9.5l-10-10l-1.4,1.4l10.5,10.5l-14,27.9C5.9,54,6,56.3,7.1,58.1z M12.3,59   c-1.1,0-2.1-0.4-2.8-1.1L32,35.4l22.5,22.5c-0.8,0.7-1.8,1.1-2.8,1.1H12.3z M55.4,53c0.5,1,0.6,2.1,0.2,3.2L33.4,34l8.3-8.3   L55.4,53z M28.3,13.6c0.7-1.4,2.1-2.3,3.7-2.3s3,0.9,3.7,2.3l5.1,10.1L32,32.5l-8.8-8.8L28.3,13.6z M8.6,53l13.7-27.3l8.3,8.3   L8.4,56.2C8,55.1,8.1,54,8.6,53z"/></g></svg>