<svg xmlns="http://www.w3.org/2000/svg" width="52.111" height="67" viewBox="0 0 52.111 67">
  <g id="noun_description_192324" transform="translate(-15 -5)">
    <path id="Path_101" data-name="Path 101" d="M67.111,70.139V16.167a2.14,2.14,0,0,0-.521-1.34L57.284,5.521A2.14,2.14,0,0,0,55.944,5H16.861A1.843,1.843,0,0,0,15,6.861V70.139A1.843,1.843,0,0,0,16.861,72H65.25A1.843,1.843,0,0,0,67.111,70.139ZM55.944,9.467l6.7,6.7h-6.7Zm7.444,58.811H18.722V8.722h33.5v9.306a1.843,1.843,0,0,0,1.861,1.861h9.306Z" transform="translate(0)"/>
    <path id="Path_102" data-name="Path 102" d="M57.917,45H31.861a1.861,1.861,0,1,0,0,3.722H57.917a1.861,1.861,0,0,0,0-3.722Z" transform="translate(-3.833 -10.222)"/>
    <path id="Path_103" data-name="Path 103" d="M31.861,35a1.861,1.861,0,1,0,0,3.722H57.917a1.861,1.861,0,0,0,0-3.722Z" transform="translate(-3.833 -7.667)"/>
    <path id="Path_104" data-name="Path 104" d="M57.917,55H31.861a1.861,1.861,0,1,0,0,3.722H57.917a1.861,1.861,0,1,0,0-3.722Z" transform="translate(-3.833 -12.778)"/>
    <path id="Path_105" data-name="Path 105" d="M57.917,65H31.861a1.861,1.861,0,1,0,0,3.722H57.917a1.861,1.861,0,1,0,0-3.722Z" transform="translate(-3.833 -15.333)"/>
    <path id="Path_106" data-name="Path 106" d="M57.917,75H31.861a1.861,1.861,0,1,0,0,3.722H57.917a1.861,1.861,0,1,0,0-3.722Z" transform="translate(-3.833 -17.889)"/>
  </g>
</svg>
