<?xml version="1.0" ?><svg height="301px" version="1.1" viewBox="0 0 480 301" width="480px" xmlns="http://www.w3.org/2000/svg" xmlns:sketch="http://www.bohemiancoding.com/sketch/ns" xmlns:xlink="http://www.w3.org/1999/xlink"><title/><desc/><defs/><g fill="none" fill-rule="evenodd" id="round-rect" stroke="none" stroke-width="1"><g id="ideal"><path d="M444,3.03581628e-06 C420,5.30180998e-06 165.902344,-4.81179503e-06 24,3.03581628e-06 C12,3.6994511e-06 -6.11066753e-13,12.0056015 -1.42108547e-14,24.0112 C-1.42108547e-14,96.1913435 2.8991193e-06,240.111972 -1.42108547e-14,264.123169 C-1.38851962e-06,288.134366 12,300.139965 36,300.139965 C169.869629,300.139965 420,300.139967 444,300.139965 C468,300.139965 480,288.134366 480,264.123169 C479.999998,240.111972 479.999994,115.769809 480,36.0167984 C480,12.0056015 468,3.03581628e-06 444,3.03581628e-06 Z" fill="#F4F4F4" id="Rectangle-2"/><g transform="translate(140.000000, 64.000000)"><path d="M115,172.989499 L115,173 L0,173 L0,0 L115,0 L115,0.0105009182 C162.080663,0.670703116 200,32.4304754 200,86.5 C200,140.569525 162.080663,172.329297 115,172.989499 L115,172.989499 Z M114,164 L9,164 L9,9 L114,9 L114,9.00122653 C159.157696,9.22295555 191,39.4910717 191,86.5 C191,133.508928 159.157696,163.777044 114,163.998773 L114,164 L114,164 Z" fill="#000000" id="Rectangle-31"/><path d="M21,98 L51,98 L51,152 L21,152 L21,98 Z M36,90 C46.4934102,90 55,81.4934102 55,71 C55,60.5065898 46.4934102,52 36,52 C25.5065898,52 17,60.5065898 17,71 C17,81.4934102 25.5065898,90 36,90 Z" fill="#000000" id="Rectangle-31"/><path d="M178.700423,79 C173.938309,21 114,21 114,21 L67,21 L67,152 L114,152 C114,152 178.003807,152 178.98852,88 L157,88 L157,53 L166,53 L166,79 L178.700423,79 L178.700423,79 Z M93,53 L114,53 L114,62 L102,62 L102,66 L113,66 L113,74 L102,74 L102,79 L115,79 L115,88 L93,88 L93,53 Z M79.6336422,70.5 C79.6336422,62 74,62 74,62 L67,62 L67,53 L73,53 C73,53 88,53 88,70.5 C88,88 73,88 73,88 L67,88 L67,79 L74,79 C74,79 79.6336422,79 79.6336422,70.5 Z M129.725342,53 L142,53 L152.549072,88 L143.447266,88 L141.55542,81.3479004 L130.017822,81.3479004 L128.07251,88 L118.980225,88 L129.725342,53 Z M135.866699,62.2519531 L139.012451,72.5708008 L132.662354,72.5708008 L135.866699,62.2519531 Z" fill="#E54279" id="Rectangle-32"/></g></g></g></svg>